<svg version="1.2" xmlns="http://www.w3.org/2000/svg" viewBox="0 0 512 512" width="512" height="512"><style>.a{fill:#f8c745}</style><path class="a" d="m284.7 236.1c32.7-24.6 39.7-21.7 81.3-28 69.2-10.6 149.2-11.2 142.7 14-2.6 9.8-21.7 21.1-47.1 29.4-80.6 26.4-178.2-13.8-176.9-1.4 1.1 11.3 87 4.7 154.1 44.9 36.6 21.9 62.6 26 65.6 57.4 3 31.7-18.4 58.7-54.2 68.7-27.4 7.6-36.7-1.1-65.7-15.4-75.8-37.5-123.5-144.4-122.7-124.8 0.4 8.8 22.8 32.3 38.6 67.3 27.8 61.7 45.3 121.3 38.5 130.4-8.5 11.4-69.5-64.2-94.2-143-6.3-20.1-7.6-23.5-2.8-43.4 7.7-32.1 15.7-35.7 42.8-56.1z"/><path class="a" d="m185 15.1c12.1 2.9 38.4 49.9 55.4 106.5 15.7 52.8 8.1 73.5 12.8 102.3 1.7 2.6 5.6-0.7 8.5-4.3 10.3-28.4 12.2-47.1 39.8-79.5 59.2-69.5 132.9-119.1 166.8-92.6 60.2 22.3-47.9 136.6-173.9 197.7-2.9 2.4-5.7-5.9-7.1-4.3-0.8 0.8-0.1 2.2 0 4.3 5.3 11.7 8.5 26.5 1.4 39.8-30.6 36-38.8 14.5-49.7 19.8 0.1 5.8 13.3 0.2 12.8 5.7-7.9 78.2-40.4 152.4-82.4 181.8-34.8 11.3-75.4 4.7-90.9-19.9-19.7-31.2 14.8-62 51.1-106.5 35.3-43.1 55.3-31.8 90.9-69.6 1.4-1.5 0.2-4.2-1.4-4.2-15-0.3-18.1 14-38.3 19.8-80.8 23.3-180.1 27-171.9 8.6 5.3-11.9 47.9-34.2 100.8-45.5 47.6-10.2 60.1 11.8 99.5-1.4 2.8-1 3.9-5.5 1.4-7.1-42.8-27.6-67-5.2-116.5-36.9-55.4-35.6-95.8-50.7-89.4-103.7 2.3-19.6 12.4-31.8 31.2-39.8 37-15.6 51.6 10.6 92.3 37 60.1 38.8 53 69.3 99.4 107.9 1.4 1.2 1.9-2.2 1.4-4.3-6.2-25.2-15.7-23.7-24.1-49.7-24.8-76.5-36.3-165.9-19.9-161.9z"/></svg>